<svg id="그룹_668" data-name="그룹 668" xmlns="http://www.w3.org/2000/svg" width="24" height="49.119" viewBox="0 0 24 49.119" preserveAspectRatio="none slice">
  <defs>
    <style>
      .cls-01 {
        fill: #fc594c;
      }

      .cls-02 {
        fill: #f0463d;
      }

      .cls-03 {
        fill: #379443;
      }
    </style>
  </defs>
  <path id="패스_90" data-name="패스 90" class="cls-01" d="M424.57,303.753q.541.655,1.016,1.363a17.141,17.141,0,0,1,2.909,9.013c.007.195.011.389.011.585,0,.043,0,.084,0,.127a17.143,17.143,0,0,1-2.651,9.06q-.445.7-.953,1.36h0a3.517,3.517,0,0,0,2.291,6.184h.035a3.5,3.5,0,0,0,2.04-.676,3.5,3.5,0,0,1-2.04.676q.676.112,1.37.17.717.06,1.449.061h.009a17.226,17.226,0,0,0,0-34.453h-.009a17.4,17.4,0,0,0-1.935.109q-.615.069-1.217.18h0l-.106,0a3.517,3.517,0,0,0-2.218,6.246m8.988,20.422a24.259,24.259,0,0,0-.278-19.549,10.342,10.342,0,0,1,.278,19.549" transform="translate(-423.271 -282.554)"/>
  <g id="그룹_290" data-name="그룹 290" transform="translate(0 14.887)">
    <path id="패스_91" data-name="패스 91" class="cls-02" d="M433.807,340.867a10.327,10.327,0,0,1-3.5.613h-.009a10.36,10.36,0,0,1-1.507-.111,3.515,3.515,0,0,0-1.254-.265l-.093,0a3.517,3.517,0,0,0,0,7.035h.035a3.507,3.507,0,0,0,2.566-1.149l.151-.179c.038-.048.074-.1.11-.146v.01A24.214,24.214,0,0,0,433.807,340.867Z" transform="translate(-423.521 -314.199)"/>
    <path id="패스_92" data-name="패스 92" class="cls-02" d="M424.57,303.93a3.509,3.509,0,0,0,2.571.771q.459-.134.936-.227a10.387,10.387,0,0,1,1.969-.19h.009a10.335,10.335,0,0,1,3.226.519,24.215,24.215,0,0,0-3.226-5.179c-.166-.2-.335-.405-.506-.6q-.136-.156-.275-.309a3.5,3.5,0,0,0-2.378-1.025l-.106,0a3.517,3.517,0,0,0-2.218,6.246Z" transform="translate(-423.271 -297.684)"/>
  </g>
  <path id="패스_93" data-name="패스 93" class="cls-03" d="M430.672,276.5c-.108.144-.209.292-.3.442a6.874,6.874,0,0,0-.779,1.719,7.516,7.516,0,0,0-.279,1.467,9.57,9.57,0,0,0,.726,4.443,8.725,8.725,0,0,0,6.4-1.65,6.787,6.787,0,0,0,1.122-1.136h0c.02-.027.043-.051.063-.077a6.755,6.755,0,0,0,.715-1.194,8.575,8.575,0,0,0-.078-6.876A8.178,8.178,0,0,0,430.672,276.5Z" transform="translate(-425.567 -273.578)"/>
</svg>
