<svg id="구름_번개" data-name="구름+번개" xmlns="http://www.w3.org/2000/svg" width="24" height="24" viewBox="0 0 24 15">
  <rect id="사각형_374" data-name="사각형 374" width="24" height="24" fill="none" opacity="0.5"/>
  <path id="패스_420" data-name="패스 420" d="M165.385,35.081a3.343,3.343,0,0,0-1.576-1.209,3.859,3.859,0,0,0,.418-2.806A3.944,3.944,0,0,0,161.3,28.1a3.882,3.882,0,0,0-2.872.41,5.361,5.361,0,0,0-5.5-2.388A5.089,5.089,0,0,0,150,27.905a5.007,5.007,0,0,0-1.294,4.716,3.951,3.951,0,0,0-2.608,4.7,4.043,4.043,0,0,0,3.969,3h4.5a1.013,1.013,0,0,0,.062.66,1.05,1.05,0,0,0,.965.61h1.6l-1.234,3.574a.657.657,0,0,0,.295.786.633.633,0,0,0,.8-.145l3.888-4.588a1.014,1.014,0,0,0,.151-1.1,1.049,1.049,0,0,0-.966-.61h-1.6l1.226-3.553a.664.664,0,0,0-.3-.793.639.639,0,0,0-.812.146l-3.435,4.056h-5.148a3.086,3.086,0,0,1-3.042-2.269,3,3,0,0,1,2.364-3.674l.539-.1-.175-.52a4.064,4.064,0,0,1,.975-4.288,4.135,4.135,0,0,1,2.373-1.456,4.411,4.411,0,0,1,4.746,2.345l.261.507.453-.346a2.97,2.97,0,0,1,2.522-.54,3.027,3.027,0,0,1,2.212,2.244,2.951,2.951,0,0,1-.637,2.587l-.558.666.861.113a2.372,2.372,0,0,1,2.015,2.882c-.233,1.09-1.278,1.742-2.939,1.837a.475.475,0,0,0-.448.5.461.461,0,0,0,.5.448c2.1-.12,3.489-1.063,3.817-2.588A3.316,3.316,0,0,0,165.385,35.081Zm-7.758,5.086a.713.713,0,0,0,.579.3h1.931c.065,0,.092.037.089.137l-2.833,3.344L158.2,41.6a.735.735,0,0,0-.1-.666.71.71,0,0,0-.577-.3h-1.933c-.065,0-.091-.036-.088-.136l2.834-3.346-.809,2.344A.738.738,0,0,0,157.627,40.167Z" transform="translate(-143.989 -24.037)"/>
</svg>
