<svg id="구름" xmlns="http://www.w3.org/2000/svg" width="24" height="24" viewBox="0 0 24 15">
  <rect id="사각형_316" data-name="사각형 316" width="24" height="24" fill="none" opacity="0.5"/>
  <g id="그룹_752" data-name="그룹 752" transform="translate(95.993 -24.037)">
    <path id="패스_346" data-name="패스 346" d="M-78.383,43.037H-89.912a4.032,4.032,0,0,1-3.97-2.944,3.817,3.817,0,0,1,.529-3.039,3.97,3.97,0,0,1,2.08-1.565,4.833,4.833,0,0,1,1.293-4.62,5.113,5.113,0,0,1,2.932-1.746,5.408,5.408,0,0,1,5.5,2.341,3.956,3.956,0,0,1,2.872-.4,3.9,3.9,0,0,1,2.922,2.9,3.713,3.713,0,0,1-.417,2.749A3.341,3.341,0,0,1-74.6,37.9a3.206,3.206,0,0,1,.526,2.588c-.328,1.494-1.718,2.419-3.817,2.536C-78.048,43.032-78.213,43.037-78.383,43.037Zm-7.688-13.066a4.6,4.6,0,0,0-.806.071,4.161,4.161,0,0,0-2.375,1.428,3.926,3.926,0,0,0-.974,4.2l.175.509-.539.1a3.018,3.018,0,0,0-1.966,1.286,2.9,2.9,0,0,0-.4,2.315A3.075,3.075,0,0,0-89.912,42.1h11.529c.151,0,.3,0,.442-.011,1.661-.093,2.7-.732,2.938-1.8a2.3,2.3,0,0,0-.371-1.855,2.414,2.414,0,0,0-1.645-.971l-.862-.11.559-.653a2.844,2.844,0,0,0,.637-2.534,3,3,0,0,0-2.212-2.2,3,3,0,0,0-2.522.53l-.453.339-.26-.5A4.426,4.426,0,0,0-86.071,29.971Z" fill="#707070"/>
  </g>
</svg>
