<svg id="번개" xmlns="http://www.w3.org/2000/svg" width="24" height="24" viewBox="0 0 24 24">
  <rect id="사각형_372" data-name="사각형 372" width="24" height="24" fill="none" opacity="0.5"/>
  <g id="그룹_896" data-name="그룹 896" transform="translate(0.021 -24.024)">
    <g id="그룹_894" data-name="그룹 894">
      <path id="패스_411" data-name="패스 411" d="M5.532,45.024a.7.7,0,0,1-.344-.093.7.7,0,0,1-.318-.854l1.708-4.948H4.229a1.238,1.238,0,0,1-1.137-.717,1.192,1.192,0,0,1,.176-1.284l5.138-6.065h0a.692.692,0,0,1,.879-.157.711.711,0,0,1,.32.861l-1.7,4.922h2.349a1.238,1.238,0,0,1,1.137.717,1.191,1.191,0,0,1-.177,1.284L6.059,44.775A.69.69,0,0,1,5.532,45.024ZM8.3,32.66l-4.3,5.08a.242.242,0,0,0-.039.273.293.293,0,0,0,.277.168H6.792a.787.787,0,0,1,.639.332.818.818,0,0,1,.106.741l-1.346,3.9,4.3-5.077a.244.244,0,0,0,.039-.273.293.293,0,0,0-.277-.169H7.693a.787.787,0,0,1-.639-.332.816.816,0,0,1-.106-.74Zm-1.5,6.469h0Z"/>
    </g>
    <g id="그룹_895" data-name="그룹 895">
      <path id="패스_412" data-name="패스 412" d="M15.005,41.234a.694.694,0,0,1-.344-.092.706.706,0,0,1-.318-.854l1.709-4.949H13.7a1.237,1.237,0,0,1-1.138-.717,1.193,1.193,0,0,1,.177-1.284l5.138-6.064h0a.692.692,0,0,1,.878-.158.712.712,0,0,1,.321.862L17.38,32.9h2.349a1.237,1.237,0,0,1,1.138.717A1.193,1.193,0,0,1,20.69,34.9l-5.157,6.085A.694.694,0,0,1,15.005,41.234Zm2.764-12.363-4.3,5.08a.244.244,0,0,0-.04.273.3.3,0,0,0,.278.168h2.563a.789.789,0,0,1,.639.331.822.822,0,0,1,.106.741l-1.347,3.9,4.3-5.078a.246.246,0,0,0,.039-.273.3.3,0,0,0-.278-.168H17.166a.787.787,0,0,1-.638-.332.816.816,0,0,1-.107-.74Zm-1.5,6.468h0Z"/>
    </g>
  </g>
</svg>
