<svg id="구성_요소_4" data-name="구성 요소 4" xmlns="http://www.w3.org/2000/svg" width="100" height="97.007" viewBox="0 0 100 97.007">
  <defs>
    <style>
      .cls-1 {
        fill: #f0463d;
      }

      .cls-2 {
        fill: #fff;
      }
    </style>
  </defs>
  <path id="패스_395" data-name="패스 395" class="cls-1" d="M393.393,169.64l31.85,23.139a17.041,17.041,0,0,1,6.189,19.053l-12.166,37.44a17.671,17.671,0,0,1-6.052,8.419,16.421,16.421,0,0,1-10.153,3.355H363.694a17.045,17.045,0,0,1-16.208-11.774l-12.163-37.44a17.041,17.041,0,0,1,6.189-19.053l31.849-23.139A17.037,17.037,0,0,1,393.393,169.64Z" transform="translate(-333.377 -165.336)"/>
  <g id="그룹_840" data-name="그룹 840">
    <g id="그룹_833" data-name="그룹 833">
      <path id="패스_396" data-name="패스 396" class="cls-2" d="M402.938,262.988H365.18a19.4,19.4,0,0,1-18.493-13.435l-11.668-35.915A19.394,19.394,0,0,1,342.08,191.9l30.553-22.2a19.386,19.386,0,0,1,22.854,0l30.553,22.2a19.394,19.394,0,0,1,7.061,21.735l-11.671,35.915A19.389,19.389,0,0,1,402.938,262.988Zm-18.879-94.41a16.821,16.821,0,0,0-9.9,3.227L343.6,194a16.806,16.806,0,0,0-6.119,18.835l11.668,35.914a16.806,16.806,0,0,0,16.026,11.642h37.759a16.8,16.8,0,0,0,16.023-11.642l11.671-35.914A16.806,16.806,0,0,0,424.513,194L393.96,171.8A16.821,16.821,0,0,0,384.059,168.578Z" transform="translate(-334.059 -165.981)"/>
    </g>
    <g id="그룹_839" data-name="그룹 839" transform="translate(34.001 31.09)">
      <g id="그룹_834" data-name="그룹 834" transform="translate(18.059 19.148)">
        <path id="패스_397" data-name="패스 397" class="cls-2" d="M361.155,196.755a1.3,1.3,0,0,1-1.087-.589l-5.73-8.817a1.3,1.3,0,1,1,2.174-1.411l5.73,8.815a1.3,1.3,0,0,1-.381,1.792A1.28,1.28,0,0,1,361.155,196.755Z" transform="translate(-354.128 -185.348)"/>
      </g>
      <g id="그룹_835" data-name="그룹 835" transform="translate(20.712 10.682)">
        <path id="패스_398" data-name="패스 398" class="cls-2" d="M356.448,186.626a1.3,1.3,0,0,1-.283-2.563l8.69-1.951a1.3,1.3,0,0,1,.565,2.534l-8.687,1.951A1.544,1.544,0,0,1,356.448,186.626Z" transform="translate(-355.151 -182.084)"/>
      </g>
      <g id="그룹_836" data-name="그룹 836" transform="translate(14.702)">
        <path id="패스_399" data-name="패스 399" class="cls-2" d="M354.131,188.742a1.3,1.3,0,0,1-1.3-1.3v-8.182a1.3,1.3,0,1,1,2.594,0v8.182A1.3,1.3,0,0,1,354.131,188.742Z" transform="translate(-352.834 -177.966)"/>
      </g>
      <g id="그룹_837" data-name="그룹 837" transform="translate(0 10.682)">
        <path id="패스_400" data-name="패스 400" class="cls-2" d="M357.144,186.626a1.384,1.384,0,0,1-.27-.029l-8.693-1.951a1.3,1.3,0,0,1,.565-2.534l8.54,1.917a1.366,1.366,0,0,1,1.058,1.567A1.254,1.254,0,0,1,357.144,186.626Z" transform="translate(-347.167 -182.084)"/>
      </g>
      <g id="그룹_838" data-name="그룹 838" transform="translate(5.615 19.149)">
        <path id="패스_401" data-name="패스 401" class="cls-2" d="M350.627,196.754a1.281,1.281,0,0,1-.706-.21,1.3,1.3,0,0,1-.381-1.793l5.73-8.815a1.3,1.3,0,0,1,2.174,1.411l-5.73,8.817A1.3,1.3,0,0,1,350.627,196.754Z" transform="translate(-349.331 -185.348)"/>
      </g>
    </g>
  </g>
</svg>
