<svg xmlns="http://www.w3.org/2000/svg" xmlns:xlink="http://www.w3.org/1999/xlink" width="59.11" height="119.163" viewBox="0 0 59.11 119.163">
  <defs>
    <style>
      .cls-1 {
        fill: url(#linear-gradient);
      }

      .cls-2 {
        opacity: 0.3;
        fill: url(#linear-gradient-2);
      }

      .cls-3 {
        fill: #fff;
      }
    </style>
    <linearGradient id="linear-gradient" x1="0.511" y1="1.344" x2="0.5" y2="0.292" gradientUnits="objectBoundingBox">
      <stop offset="0" stop-color="#fff" stop-opacity="0"/>
      <stop offset="0.081" stop-color="#fff" stop-opacity="0.145"/>
      <stop offset="0.218" stop-color="#fff" stop-opacity="0.369"/>
      <stop offset="0.356" stop-color="#fff" stop-opacity="0.561"/>
      <stop offset="0.491" stop-color="#fff" stop-opacity="0.722"/>
      <stop offset="0.623" stop-color="#fff" stop-opacity="0.843"/>
      <stop offset="0.75" stop-color="#fff" stop-opacity="0.929"/>
      <stop offset="0.872" stop-color="#fff" stop-opacity="0.98"/>
      <stop offset="0.981" stop-color="#fff"/>
    </linearGradient>
    <linearGradient id="linear-gradient-2" x1="0.251" y1="0.402" x2="-0.633" y2="-0.023" gradientUnits="objectBoundingBox">
      <stop offset="0" stop-color="#040000" stop-opacity="0"/>
      <stop offset="0.981" stop-color="#040000"/>
    </linearGradient>
  </defs>
  <g id="그룹_295" data-name="그룹 295" transform="translate(-555.572 -274.578)">
    <path id="패스_97" data-name="패스 97" class="cls-1" d="M569.281,297.371h-.021a42.923,42.923,0,0,0-4.764.266q-1.515.169-3,.444a8.639,8.639,0,0,1,5.859,2.523,9.034,9.034,0,0,1,.677.763q.634.732,1.246,1.486a59.591,59.591,0,0,1,7.946,12.756,25.47,25.47,0,0,1,.683,48.145,59.552,59.552,0,0,1-8.63,14.3c-.09.111-.179.224-.271.334-.119.151-.242.3-.372.44a8.634,8.634,0,0,1-6.321,2.83q1.669.275,3.375.418c1.177.1,2.366.151,3.568.151h.021a42.426,42.426,0,0,0,0-84.853Z" transform="translate(2.995 11.517)"/>
    <path id="패스_98" data-name="패스 98" class="cls-2" d="M569.387,378.681c.13-.141.262-.28.39-.423.1-.105.19-.215.286-.322a59.517,59.517,0,0,0,3.37-75.121c-.385-.519-.777-1.034-1.179-1.54a8.8,8.8,0,0,0-.643-.793,8.63,8.63,0,0,0-5.74-2.783c-.086-.008-.172-.015-.259-.018a8.66,8.66,0,0,0-7.927,12.918,8.71,8.71,0,0,0,1.779,2.2q1.26,1.671,2.351,3.465a42.2,42.2,0,0,1,6.161,22.5" transform="translate(0.5 11.669)"/>
    <path id="패스_99" data-name="패스 99" class="cls-3" d="M564.58,281.7c-.263.351-.509.711-.741,1.078a16.754,16.754,0,0,0-1.9,4.189,18.32,18.32,0,0,0-.68,3.575,23.326,23.326,0,0,0,1.769,10.831c5.932.607,11.517-.742,15.607-4.022a16.543,16.543,0,0,0,2.735-2.77h0c.05-.065.1-.123.154-.188a16.447,16.447,0,0,0,1.74-2.911c2.336-4.974,2.157-10.984-.188-16.761C575.591,273.955,568.652,276.285,564.58,281.7Z" transform="translate(2.833)"/>
    <path id="패스_100" data-name="패스 100" class="cls-3" d="M580.223,315.373a59.651,59.651,0,0,0-7.946-12.756c-.408-.5-.823-1-1.246-1.486q-.336-.384-.677-.763a8.639,8.639,0,0,0-5.859-2.523c-.087,0-.173-.008-.26-.008A8.662,8.662,0,0,0,556.9,311.1a8.7,8.7,0,0,0,1.876,2.121q1.332,1.612,2.5,3.357a42.2,42.2,0,0,1,7.164,22.2c.017.479.027.959.027,1.441,0,.1,0,.206,0,.31a42.226,42.226,0,0,1-6.53,22.314q-1.093,1.734-2.347,3.349a8.662,8.662,0,0,0,5.642,15.232c.03,0,.057,0,.086,0a8.634,8.634,0,0,0,6.321-2.83c.125-.146.25-.291.372-.44.092-.11.181-.223.271-.334a59.638,59.638,0,0,0,7.946-62.442Z" transform="translate(0 11.753)"/>
  </g>
</svg>
