<svg id="태풍" xmlns="http://www.w3.org/2000/svg" width="24" height="24" viewBox="0 0 24 24">
  <rect id="사각형_375" data-name="사각형 375" width="24" height="24" fill="none" opacity="0.5"/>
  <g id="그룹_898" data-name="그룹 898" transform="translate(-192.031 -24.036)">
    <path id="패스_421" data-name="패스 421" d="M204.032,32.9a3.316,3.316,0,1,0,3.3,3.315A3.31,3.31,0,0,0,204.032,32.9Zm0,5.684a2.369,2.369,0,1,1,2.355-2.369A2.364,2.364,0,0,1,204.032,38.58Z"/>
    <path id="패스_422" data-name="패스 422" d="M208.222,31.732a6.09,6.09,0,0,0-3.25-1.6l-.049-.008a6.076,6.076,0,0,0-7.016,6.085c0,.118.011.233.017.349a20.6,20.6,0,0,1-1.951-9.05.471.471,0,1,0-.942,0c0,5.382,1.748,10.09,4.35,12.7a6.107,6.107,0,0,0,3.73,2.085h.005a6.133,6.133,0,0,0,7.04-6.082c0-.162-.011-.322-.024-.482a19.644,19.644,0,0,1,1.957,8.834.471.471,0,1,0,.942,0C213.031,39,211.078,34.167,208.222,31.732Zm.3,7.085a5.221,5.221,0,0,1-1.086,1.324,5.14,5.14,0,0,1-3.4,1.281,4.782,4.782,0,0,1-.821-.072h0a5.86,5.86,0,0,1-2.866-1.486A5.212,5.212,0,0,1,204.032,31a4.868,4.868,0,0,1,.793.067l.048.008a5.6,5.6,0,0,1,2.272.98l.064.048c.063.046.123.1.186.151a5.222,5.222,0,0,1,1.125,6.562Z"/>
  </g>
</svg>
