<svg xmlns="http://www.w3.org/2000/svg" width="46" height="49" viewBox="0 0 46 49">
  <g id="그룹_883" data-name="그룹 883" transform="translate(-45 -533)">
    <g id="그룹_852" data-name="그룹 852" transform="translate(-4 -14)">
      <rect id="사각형_366" data-name="사각형 366" width="46" height="46" transform="translate(49 550)" fill="none"/>
      <g id="그룹_850" data-name="그룹 850" transform="translate(9)">
        <path id="패스_395" data-name="패스 395" d="M356.347,167.593l11.819,8.587a6.324,6.324,0,0,1,2.3,7.071l-4.515,13.894a6.558,6.558,0,0,1-2.246,3.124,6.094,6.094,0,0,1-3.768,1.245H345.325a6.325,6.325,0,0,1-6.015-4.369L334.8,183.251a6.324,6.324,0,0,1,2.3-7.071l11.819-8.587A6.322,6.322,0,0,1,356.347,167.593Z" transform="translate(-290.075 389.004)" fill="#f0463d"/>
        <g id="그룹_833" data-name="그룹 833" transform="translate(44 555)">
          <path id="패스_396" data-name="패스 396" d="M359.62,201.98H345.608a7.2,7.2,0,0,1-6.863-4.986l-4.33-13.328a7.2,7.2,0,0,1,2.62-8.066l11.338-8.237a7.194,7.194,0,0,1,8.481,0l11.338,8.237a7.2,7.2,0,0,1,2.62,8.066l-4.331,13.328A7.2,7.2,0,0,1,359.62,201.98Zm-7.006-35.036a6.242,6.242,0,0,0-3.674,1.2L337.6,176.38a6.237,6.237,0,0,0-2.271,6.99l4.33,13.328a6.237,6.237,0,0,0,5.947,4.32H359.62a6.234,6.234,0,0,0,5.946-4.32l4.331-13.328a6.237,6.237,0,0,0-2.271-6.99l-11.338-8.237A6.242,6.242,0,0,0,352.614,166.945Z" transform="translate(-334.059 -165.981)" fill="#fff"/>
        </g>
        <g id="그룹_839" data-name="그룹 839" transform="translate(56.618 566.538)">
          <g id="그룹_834" data-name="그룹 834" transform="translate(6.702 7.106)">
            <path id="패스_397" data-name="패스 397" d="M356.736,189.581a.481.481,0,0,1-.4-.219l-2.126-3.272a.481.481,0,1,1,.807-.524l2.126,3.271a.481.481,0,0,1-.142.665A.475.475,0,0,1,356.736,189.581Z" transform="translate(-354.128 -185.348)" fill="#fff"/>
          </g>
          <g id="그룹_835" data-name="그룹 835" transform="translate(7.686 3.964)">
            <path id="패스_398" data-name="패스 398" d="M355.632,183.77a.481.481,0,0,1-.1-.951l3.225-.724a.482.482,0,0,1,.21.941l-3.224.724A.573.573,0,0,1,355.632,183.77Z" transform="translate(-355.151 -182.084)" fill="#fff"/>
          </g>
          <g id="그룹_836" data-name="그룹 836" transform="translate(5.456)">
            <path id="패스_399" data-name="패스 399" d="M353.315,181.965a.481.481,0,0,1-.481-.481v-3.036a.481.481,0,0,1,.963,0v3.036A.481.481,0,0,1,353.315,181.965Z" transform="translate(-352.834 -177.966)" fill="#fff"/>
          </g>
          <g id="그룹_837" data-name="그룹 837" transform="translate(0 3.964)">
            <path id="패스_400" data-name="패스 400" d="M350.869,183.77a.514.514,0,0,1-.1-.011l-3.226-.724a.482.482,0,0,1,.21-.941l3.169.711a.507.507,0,0,1,.393.581A.465.465,0,0,1,350.869,183.77Z" transform="translate(-347.167 -182.084)" fill="#fff"/>
          </g>
          <g id="그룹_838" data-name="그룹 838" transform="translate(2.084 7.106)">
            <path id="패스_401" data-name="패스 401" d="M349.812,189.581a.475.475,0,0,1-.262-.078.481.481,0,0,1-.142-.665l2.126-3.271a.481.481,0,0,1,.807.524l-2.127,3.272A.481.481,0,0,1,349.812,189.581Z" transform="translate(-349.331 -185.348)" fill="#fff"/>
          </g>
        </g>
      </g>
    </g>
    <g id="그룹_859" data-name="그룹 859" transform="translate(0.473)">
      <g id="그룹_857" data-name="그룹 857" transform="translate(66 533)">
        <path id="패스_93" data-name="패스 93" d="M430.227,275.569c-.074.1-.142.2-.207.3a4.682,4.682,0,0,0-.531,1.171,5.121,5.121,0,0,0-.19,1,6.522,6.522,0,0,0,.495,3.028,5.946,5.946,0,0,0,4.363-1.125,4.624,4.624,0,0,0,.765-.774h0c.014-.018.029-.035.043-.053a4.6,4.6,0,0,0,.487-.814,5.844,5.844,0,0,0-.053-4.686A5.573,5.573,0,0,0,430.227,275.569Z" transform="translate(-426.749 -273.578)" fill="#379443"/>
      </g>
      <g id="그룹_858" data-name="그룹 858" transform="translate(59.527 533)">
        <path id="패스_93-2" data-name="패스 93" d="M434.965,275.569c.074.1.142.2.207.3a4.682,4.682,0,0,1,.531,1.171,5.121,5.121,0,0,1,.19,1,6.522,6.522,0,0,1-.495,3.028,5.946,5.946,0,0,1-4.363-1.125,4.624,4.624,0,0,1-.765-.774h0c-.014-.018-.029-.035-.043-.053a4.6,4.6,0,0,1-.487-.814,5.844,5.844,0,0,1,.053-4.686A5.573,5.573,0,0,1,434.965,275.569Z" transform="translate(-429.276 -273.578)" fill="#379443"/>
      </g>
    </g>
  </g>
</svg>
