<svg id="해_구름" data-name="해+구름" xmlns="http://www.w3.org/2000/svg" width="24" height="24" viewBox="0 0 24 24">
  <rect id="사각형_373" data-name="사각형 373" width="24" height="24" fill="none" opacity="0.5"/>
  <g id="그룹_897" data-name="그룹 897" transform="translate(0.051 -24.037)">
    <path id="패스_413" data-name="패스 413" d="M8.449,31.558a1.5,1.5,0,1,0,.269,2.98,4.584,4.584,0,0,1,1.039-.749,1.482,1.482,0,0,0,.2-.727A1.506,1.506,0,0,0,8.449,31.558Z" fill="none"/>
    <path id="패스_414" data-name="패스 414" d="M8.437,30.251a.5.5,0,0,0,.5-.5V27.062a.5.5,0,0,0-1,0v2.689A.5.5,0,0,0,8.437,30.251Z"/>
    <path id="패스_415" data-name="패스 415" d="M5.746,31.082a.5.5,0,0,0,.707-.707l-1.9-1.9a.5.5,0,0,0-.707.707Z"/>
    <path id="패스_416" data-name="패스 416" d="M5.638,33.073a.5.5,0,0,0-.5-.5H2.449a.5.5,0,0,0,0,1H5.138A.5.5,0,0,0,5.638,33.073Z"/>
    <path id="패스_417" data-name="패스 417" d="M6.47,35.058a.5.5,0,0,0-.707,0l-1.9,1.9a.5.5,0,0,0,.354.854.5.5,0,0,0,.353-.147l1.9-1.9A.5.5,0,0,0,6.47,35.058Z"/>
    <path id="패스_418" data-name="패스 418" d="M21.424,40.951a2.912,2.912,0,0,0-1.265-1.008,3.4,3.4,0,0,0-2.222-4.892,3.366,3.366,0,0,0-2.4.308,4.59,4.59,0,0,0-2.4-1.808h1.315a.5.5,0,1,0,0-1H11.76a.5.5,0,0,0-.5.5.485.485,0,0,0,.1.285c-.146.011-.293.022-.439.047a2.6,2.6,0,0,0,.032-.321A2.5,2.5,0,1,0,7.906,35.5a4.121,4.121,0,0,0-.689,3.375,3.421,3.421,0,0,0-2.172,4.035,3.5,3.5,0,0,0,3.431,2.6h9.685c.147,0,.288,0,.421-.013,1.811-.1,3.014-.924,3.3-2.252A2.888,2.888,0,0,0,21.424,40.951ZM6.945,33.062a1.5,1.5,0,0,1,3.008,0,1.482,1.482,0,0,1-.2.727,4.584,4.584,0,0,0-1.039.749,1.485,1.485,0,0,1-1.773-1.476ZM20.9,43.038c-.25,1.169-1.6,1.418-2.38,1.463-.116.007-.236.011-.361.011H8.476a2.491,2.491,0,0,1-2.458-1.827,2.423,2.423,0,0,1,1.907-2.967l.565-.1-.018-.054-.163-.491A3.152,3.152,0,0,1,8.781,36c.1-.142.2-.285.326-.434.043-.051.092-.091.137-.139a3.546,3.546,0,0,1,1.2-.863,2.824,2.824,0,0,1,.6-.188,3.714,3.714,0,0,1,.66-.059,3.607,3.607,0,0,1,3.22,1.975l.273.533.476-.363a2.4,2.4,0,0,1,2.035-.435,2.438,2.438,0,0,1,1.783,1.809,2.38,2.38,0,0,1-.514,2.087l-.585.7.9.118a1.893,1.893,0,0,1,1.607,2.3Z"/>
    <path id="패스_419" data-name="패스 419" d="M10.782,31.213a.5.5,0,0,0,.354-.146l1.9-1.9a.5.5,0,0,0-.707-.707l-1.9,1.9a.5.5,0,0,0,.353.854Z"/>
  </g>
</svg>
