<svg id="해" xmlns="http://www.w3.org/2000/svg" width="24" height="24" viewBox="0 0 24 24">
  <rect id="사각형_317" data-name="사각형 317" width="24" height="24" fill="none" opacity="0.5"/>
  <g id="그룹_762" data-name="그룹 762" transform="translate(0.011 -24.024)">
    <g id="그룹_753" data-name="그룹 753">
      <path id="패스_347" data-name="패스 347" d="M11.989,39.345a3.321,3.321,0,1,1,3.322-3.321A3.325,3.325,0,0,1,11.989,39.345Zm0-5.695a2.374,2.374,0,1,0,2.374,2.374A2.378,2.378,0,0,0,11.989,33.65Z" fill="#707070"/>
    </g>
    <g id="그룹_754" data-name="그룹 754">
      <path id="패스_348" data-name="패스 348" d="M11.973,31.793a.474.474,0,0,1-.474-.473V27.5a.474.474,0,1,1,.947,0V31.32A.473.473,0,0,1,11.973,31.793Z" fill="#707070"/>
    </g>
    <g id="그룹_755" data-name="그룹 755">
      <path id="패스_349" data-name="패스 349" d="M8.65,33.183a.472.472,0,0,1-.335-.139l-2.7-2.7a.474.474,0,0,1,.67-.67l2.7,2.7a.474.474,0,0,1,0,.67A.468.468,0,0,1,8.65,33.183Z" fill="#707070"/>
    </g>
    <g id="그룹_756" data-name="그룹 756">
      <path id="패스_350" data-name="패스 350" d="M7.284,36.514H3.463a.473.473,0,1,1,0-.947H7.284a.473.473,0,1,1,0,.947Z" fill="#707070"/>
    </g>
    <g id="그룹_757" data-name="그룹 757">
      <path id="패스_351" data-name="패스 351" d="M5.971,42.538a.474.474,0,0,1-.335-.809l2.7-2.7a.473.473,0,0,1,.669.67l-2.7,2.7A.472.472,0,0,1,5.971,42.538Z" fill="#707070"/>
    </g>
    <g id="그룹_758" data-name="그룹 758">
      <path id="패스_352" data-name="패스 352" d="M12.005,45.024a.474.474,0,0,1-.474-.474V40.728a.474.474,0,0,1,.948,0V44.55A.474.474,0,0,1,12.005,45.024Z" fill="#707070"/>
    </g>
    <g id="그룹_759" data-name="그룹 759">
      <path id="패스_353" data-name="패스 353" d="M18.03,42.515a.468.468,0,0,1-.335-.139l-2.7-2.7a.474.474,0,0,1,.67-.67l2.7,2.7a.474.474,0,0,1-.335.809Z" fill="#707070"/>
    </g>
    <g id="그룹_760" data-name="그룹 760">
      <path id="패스_354" data-name="패스 354" d="M20.516,36.481H16.694a.473.473,0,1,1,0-.947h3.822a.473.473,0,0,1,0,.947Z" fill="#707070"/>
    </g>
    <g id="그룹_761" data-name="그룹 761">
      <path id="패스_355" data-name="패스 355" d="M15.3,33.16a.474.474,0,0,1-.335-.809l2.7-2.7a.473.473,0,0,1,.669.669l-2.7,2.7A.476.476,0,0,1,15.3,33.16Z" fill="#707070"/>
    </g>
  </g>
</svg>
